<svg xmlns="http://www.w3.org/2000/svg" width="30.881" height="35.149" viewBox="0 0 30.881 35.149">
  <defs>
    <style>
      .cls-1 {
        fill: #e6d5b8;
        stroke: #e6d5b8;
      }
    </style>
  </defs>
  <path id="Icon_awesome-bell" data-name="Icon awesome-bell" class="cls-1" d="M14.94,34.149a4.268,4.268,0,0,0,4.267-4.269H10.674A4.268,4.268,0,0,0,14.94,34.149Zm14.366-9.985c-1.289-1.385-3.7-3.468-3.7-10.291A10.533,10.533,0,0,0,17.073,3.524V2.134a2.133,2.133,0,1,0-4.266,0v1.39A10.533,10.533,0,0,0,4.274,13.873c0,6.823-2.411,8.906-3.7,10.291A2.084,2.084,0,0,0,0,25.612a2.136,2.136,0,0,0,2.141,2.134h25.6a2.136,2.136,0,0,0,2.141-2.134A2.083,2.083,0,0,0,29.306,24.164Z" transform="translate(0.5 0.5)"/>
</svg>
