<svg xmlns="http://www.w3.org/2000/svg" width="40.446" height="38.744" viewBox="0 0 40.446 38.744">
  <defs>
    <style>
      .cls-1 {
        fill: none;
        stroke: #e6d5b8;
        stroke-linecap: round;
        stroke-linejoin: round;
        stroke-width: 3px;
      }
    </style>
  </defs>
  <g id="Icon_feather-shopping-cart" data-name="Icon feather-shopping-cart" transform="translate(1.5 1.5)">
    <path id="Path_3" data-name="Path 3" class="cls-1" d="M15.4,31.7A1.7,1.7,0,1,1,13.7,30,1.7,1.7,0,0,1,15.4,31.7Z" transform="translate(-0.085 2.34)"/>
    <path id="Path_4" data-name="Path 4" class="cls-1" d="M31.9,31.7A1.7,1.7,0,1,1,30.2,30,1.7,1.7,0,0,1,31.9,31.7Z" transform="translate(2.138 2.34)"/>
    <path id="Path_5" data-name="Path 5" class="cls-1" d="M1.5,1.5H8.308L12.87,24.291a3.4,3.4,0,0,0,3.4,2.74H32.819a3.4,3.4,0,0,0,3.4-2.74L38.946,10.01H10.01" transform="translate(-1.5 -1.5)"/>
  </g>
</svg>
